<svg width="20" height="20" viewBox="0 0 20 20" fill="none" xmlns="http://www.w3.org/2000/svg">
<g clip-path="url(#clip0_49_16)">
<path d="M8.08359 0.824666C5.54194 1.39133 3.45859 2.79967 2.02526 4.933C-0.483073 8.69135 0.0169258 13.733 3.21694 16.9497C4.17525 17.9163 5.63359 18.8497 6.73359 19.208C7.14194 19.3413 7.19194 19.3413 7.37525 19.2163C7.57525 19.083 7.58359 19.0497 7.58359 18.0913V17.108L6.85025 17.1497C5.99194 17.1913 5.32525 17.0413 4.92525 16.6997C4.78359 16.583 4.50859 16.183 4.31694 15.8163C4.00025 15.1997 3.76694 14.9163 3.11694 14.3413C2.90025 14.1497 2.89194 14.1413 3.04194 14.033C3.40025 13.7663 4.12525 14.0247 4.58359 14.5747C5.38359 15.5497 5.69194 15.808 6.15025 15.908C6.55859 15.9913 6.93359 15.958 7.50025 15.7913C7.57525 15.7663 7.67525 15.5913 7.72525 15.3913C7.77525 15.1997 7.90859 14.908 8.01694 14.7497L8.21694 14.458L7.54194 14.3247C6.12525 14.033 5.25025 13.5247 4.67525 12.658C4.14194 11.858 3.96694 11.1663 3.95859 9.87466C3.95859 8.658 4.09194 8.158 4.61694 7.47466C4.85025 7.17466 4.87525 7.083 4.80859 6.908C4.68359 6.608 4.71694 5.34135 4.85025 4.958C4.95859 4.67466 5.01694 4.62466 5.24194 4.59966C5.61694 4.558 6.31694 4.79966 7.02525 5.19966L7.63359 5.54966L8.16694 5.42466C8.92525 5.24966 11.2002 5.258 11.8836 5.42466L12.4002 5.558L12.8836 5.26635C13.5252 4.883 14.3419 4.583 14.7503 4.583C15.0753 4.583 15.0752 4.59135 15.2086 5.01635C15.3502 5.508 15.3753 6.39966 15.2503 6.82466C15.1836 7.07466 15.2002 7.14966 15.3836 7.39135C16.2919 8.59135 16.3919 10.583 15.6253 12.2163C15.1086 13.2913 14.0169 14.0413 12.5502 14.3163L11.8502 14.4497L12.1086 14.908L12.3753 15.3747L12.4002 17.233L12.4336 19.0913L12.6419 19.2247C12.8336 19.3497 12.8752 19.3497 13.2752 19.208C13.9419 18.983 15.0836 18.3663 15.7086 17.8913C19.4252 15.108 20.6253 10.1163 18.5669 5.96635C17.3586 3.52466 15.0752 1.64967 12.4586 0.949666C11.3169 0.649666 9.16694 0.583 8.08359 0.824666Z" fill="black"/>
</g>
<defs>
<clipPath id="clip0_49_16">
<rect width="20" height="20" fill="white"/>
</clipPath>
</defs>
</svg>
