<svg width="40" height="40" viewBox="0 0 40 40" fill="none" xmlns="http://www.w3.org/2000/svg">
<path d="M16.1662 1.65031C11.0829 2.78365 6.91621 5.60031 4.04954 9.86698C-0.967123 17.3837 0.032875 27.467 6.43289 33.9003C8.34952 35.8337 11.2662 37.7003 13.4662 38.417C14.2829 38.6837 14.3829 38.6837 14.7495 38.4337C15.1495 38.167 15.1662 38.1003 15.1662 36.1837V34.217L13.6995 34.3003C11.9829 34.3837 10.6495 34.0837 9.84952 33.4003C9.56621 33.167 9.01621 32.367 8.63289 31.6337C7.99952 30.4003 7.53289 29.8337 6.23289 28.6837C5.79952 28.3003 5.78289 28.2837 6.08289 28.067C6.79952 27.5337 8.24952 28.0503 9.16621 29.1503C10.7662 31.1003 11.3829 31.617 12.2995 31.817C13.1162 31.9837 13.8662 31.917 14.9995 31.5837C15.1495 31.5337 15.3495 31.1837 15.4495 30.7837C15.5495 30.4003 15.8162 29.817 16.0329 29.5003L16.4329 28.917L15.0829 28.6503C12.2495 28.067 10.4995 27.0503 9.34952 25.317C8.28289 23.717 7.93289 22.3337 7.91621 19.7503C7.91621 17.317 8.18289 16.317 9.23289 14.9503C9.69952 14.3503 9.74952 14.167 9.61621 13.817C9.36621 13.217 9.43289 10.6837 9.69952 9.91698C9.91621 9.3503 10.0329 9.2503 10.4829 9.2003C11.2329 9.11698 12.6329 9.6003 14.0495 10.4003L15.2662 11.1003L16.3329 10.8503C17.8495 10.5003 22.3995 10.517 23.7662 10.8503L24.7995 11.117L25.7662 10.5337C27.0495 9.76698 28.6829 9.16698 29.4995 9.16698C30.1495 9.16698 30.1495 9.18367 30.4162 10.0337C30.6995 11.017 30.7495 12.8003 30.4995 13.6503C30.3662 14.1503 30.3995 14.3003 30.7662 14.7837C32.5829 17.1837 32.7829 21.167 31.2495 24.4337C30.2162 26.5837 28.0329 28.0837 25.0995 28.6337L23.6995 28.9003L24.2162 29.817L24.7495 30.7503L24.7995 34.467L24.8662 38.1837L25.2829 38.4503C25.6662 38.7003 25.7495 38.7003 26.5495 38.417C27.8829 37.967 30.1662 36.7337 31.4162 35.7837C38.8495 30.217 41.2495 20.2337 37.1329 11.9337C34.7162 7.0503 30.1495 3.30031 24.9162 1.90031C22.6329 1.30031 18.3329 1.16698 16.1662 1.65031Z" fill="black"/>
</svg>
