<svg width="70" height="70" viewBox="0 0 70 70" fill="none" xmlns="http://www.w3.org/2000/svg">
<path d="M28.2916 2.88722C19.3958 4.87056 12.1041 9.79972 7.08743 17.2664C-1.69173 30.4206 0.0582673 48.0664 11.2583 59.3247C14.6124 62.7081 19.7166 65.9747 23.5666 67.2289C24.9958 67.6956 25.1708 67.6956 25.8124 67.2581C26.5124 66.7914 26.5416 66.6747 26.5416 63.3206V59.8789L23.9749 60.0247C20.9708 60.1706 18.6374 59.6456 17.2374 58.4497C16.7416 58.0414 15.7791 56.6414 15.1083 55.3581C13.9999 53.1997 13.1833 52.2081 10.9083 50.1956C10.1499 49.5247 10.1208 49.4956 10.6458 49.1164C11.8999 48.1831 14.4374 49.0872 16.0416 51.0122C18.8416 54.4247 19.9208 55.3289 21.5249 55.6789C22.9541 55.9706 24.2666 55.8539 26.2499 55.2706C26.5124 55.1831 26.8624 54.5706 27.0374 53.8706C27.2124 53.1997 27.6791 52.1789 28.0583 51.6247L28.7583 50.6039L26.3958 50.1372C21.4374 49.1164 18.3749 47.3372 16.3624 44.3039C14.4958 41.5039 13.8833 39.0831 13.8541 34.5622C13.8541 30.3039 14.3208 28.5539 16.1583 26.1622C16.9749 25.1122 17.0624 24.7914 16.8291 24.1789C16.3916 23.1289 16.5083 18.6956 16.9749 17.3539C17.3541 16.3622 17.5583 16.1872 18.3458 16.0997C19.6583 15.9539 22.1083 16.7997 24.5874 18.1997L26.7166 19.4247L28.5833 18.9872C31.2374 18.3747 39.1999 18.4039 41.5916 18.9872L43.3999 19.4539L45.0916 18.4331C47.3374 17.0914 50.1958 16.0414 51.6249 16.0414C52.7624 16.0414 52.7624 16.0706 53.2291 17.5581C53.7249 19.2789 53.8124 22.3997 53.3749 23.8872C53.1416 24.7622 53.1999 25.0247 53.8416 25.8706C57.0208 30.0706 57.3708 37.0414 54.6874 42.7581C52.8791 46.5206 49.0583 49.1456 43.9249 50.1081L41.4749 50.5747L42.3791 52.1789L43.3124 53.8122L43.3999 60.3164L43.5166 66.8206L44.2458 67.2872C44.9166 67.7247 45.0624 67.7247 46.4624 67.2289C48.7958 66.4414 52.7916 64.2831 54.9791 62.6206C67.9874 52.8789 72.1874 35.4081 64.9833 20.8831C60.7541 12.3372 52.7624 5.77472 43.6041 3.32472C39.6083 2.27472 32.0833 2.04139 28.2916 2.88722Z" fill="black"/>
</svg>
