<svg width="192" height="192" viewBox="0 0 192 192" fill="none" xmlns="http://www.w3.org/2000/svg">
<path d="M152.02 121.656L111.517 97.8413V128.709L152.02 152.524V121.656Z" fill="#212549"/>
<path d="M151.706 90.5818L111.202 66.7002L70.9688 86.7011L111.472 110.516L151.706 90.5818Z" fill="#212549"/>
<path d="M80.567 125.572L181.748 75.9595V106.89L80.567 156.502V125.572Z" fill="#305BCA"/>
<path d="M80.5625 96.0791L111.47 80.562V172.129L80.5625 187.688V96.0791Z" fill="#305BCA"/>
<path d="M151.672 60.5134L181.752 45.5742L181.742 136.768L151.777 152.285L151.672 60.5134Z" fill="#305BCA"/>
<path d="M70.8848 56.4132L133.507 25.3369V55.6308L70.8848 86.7071V56.4132Z" fill="#2F558D"/>
<path d="M151.707 60.4927L111.15 36.6111L111.203 66.6999L151.707 90.5815V60.4927Z" fill="#557FBE"/>
<path d="M40.0883 38.0342L111.429 80.6024L80.5633 96.078L9.15234 53.5927L40.0883 38.0342Z" fill="#7DA2FF"/>
<path d="M110.891 3.05078L181.795 45.5538L151.706 60.4929L80.061 18.3055L110.891 3.05078Z" fill="#7DA2FF"/>
<path d="M9.15234 53.5927L109.518 3.50928L140.537 22.0982L39.789 71.8495L9.15234 53.5927Z" fill="#7DA2FF"/>
<path d="M9.15234 53.5928L80.5633 96.078V187.687L9.15234 145.202V53.5928Z" fill="#5378DA"/>
</svg>
